<svg enable-background="new 0 0 512 512" height="512" viewBox="0 0 512 512" width="512" xmlns="http://www.w3.org/2000/svg"><g fill="#1b80e4"><path d="m315.254 169.457c29.082 7.479 60.869-18.503 70.838-58.034 13.045-51.403-16.406-82.614-34.578-85.046-29.828-3.923-60.865 18.502-70.836 58.037-9.975 39.529 5.406 77.568 34.576 85.043zm0 0"/><path d="m250.664 89.457c0 40.364-23.615 73.086-52.752 73.086-29.132 0-52.753-32.722-52.753-73.086 0-40.358 23.621-73.078 52.753-73.078 29.137 0 52.752 32.719 52.752 73.078zm0 0"/><path d="m419.832 159.551c-30.666.472-54.898 29.629-54.248 74.952.656 45.234 26.008 65.892 56.672 65.419 30.572-.462 54.895-21.773 54.238-67.009-.928-59.061-49.297-73.455-56.662-73.362zm0 0"/><path d="m85.788 125.153c29.99-2.105 56.605 29.17 59.438 69.843 2.84 40.679-19.168 75.367-49.158 77.465-29.99 2.106-56.606-29.165-59.447-69.841-2.831-40.681 19.175-75.364 49.167-77.467zm0 0"/><path d="m391.777 329.362c-26.193-23.083-48.465-41.962-83.23-90.374-17.246-23.924-37.098-27.004-57.789-27.004-20.783 0-42.688 7.29-59.461 31.584-16.781 24.204-35.887 47.944-72.978 78.876-37.004 31.028-52.758 52.43-52.758 84.024 0 31.583 17.99 84.015 69.064 84.015 51.076 0 75.773-11.313 116.222-11.313 40.453 0 67.201 15.704 118.279 15.704 51.08 0 72.42-48.51 72.42-79.996.001-31.594-8.851-49.439-49.769-85.516zm0 0"/></g></svg>