<svg viewBox="0 0 24 24" xmlns="http://www.w3.org/2000/svg" xmlns:xlink="http://www.w3.org/1999/xlink"><linearGradient id="a" gradientUnits="userSpaceOnUse" x1="12" x2="12" y1="1.085" y2="22.949"><stop offset="0" stop-color="#ffaa39"/><stop offset="1" stop-color="#ff811a"/></linearGradient><path d="m23 7v12a4 4 0 0 1 -4 4h-14a4 4 0 0 1 -4-4v-16a2.006 2.006 0 0 1 2-2h6a2.006 2.006 0 0 1 2 2v2h10a2.006 2.006 0 0 1 2 2z" fill="url(#a)"/><path d="m11 3v2h-6a1 1 0 0 1 0-2z" fill="#ef6d0c"/><g fill="#ffbc6c"><path d="m14 20h-9a1 1 0 0 1 0-2h9a1 1 0 0 1 0 2z"/><path d="m9 16h-4a1 1 0 0 1 0-2h4a1 1 0 0 1 0 2z"/></g></svg>